<svg data-file="salti-logo.svg" aria-hidden="true" xmlns="http://www.w3.org/2000/svg" width="150" height="64"><g fill="none" fill-rule="nonzero"><path fill="#000" d="M149.336 51.14c.266 1.268-.53 2.336-1.858 2.336H2.124C.796 53.476 0 52.408.265 51.139l8.96-38.254c.333-1.269 1.594-2.403 2.921-2.537L135.597.668c1.328-.134 2.655.868 2.92 2.136l10.82 48.335z"/><path fill="#FFF" d="M67.367 20.295c-.132-.867-.53-1.535-1.062-2.07-.53-.466-1.26-.734-2.19-.734-1.858 0-3.518.935-4.845 2.804L40.885 45.798h6.438l1.925-2.67H64.58l.398 2.67h6.438l-4.049-25.503zM53.562 37.32l7.434-10.348c.199-.267.398-.334.663-.334.266 0 .399.133.399.334l1.725 10.348H53.562zM96.173 45.865H78.65c-1.592 0-2.986-.6-3.783-1.803-.796-1.201-.995-2.67-.464-4.339l6.106-21.697h5.973l-5.907 21.23c0 .133-.066.267 0 .4.067.134.2.2.398.2h16.925l-1.725 6.01zM132.412 18.426c.066-.267-.067-.467-.332-.467h-5.443c-.265 0-.53.2-.597.467l-1.46 5.14c-.067.268.066.468.332.468h5.442c.265 0 .531-.2.597-.467l1.46-5.14zM123.982 27.038h-.464s-.067.2-.133.468l-4.978 17.892c-.066.267.066.467.332.467H124.58c.132 0 .265-.2.332-.467l4.977-17.892c.067-.267-.066-.468-.331-.468h-5.576zM104.867 27.038h-.464s-.067.2-.133.468l-4.978 17.892c-.066.267.066.467.332.467H105.465c.132 0 .265-.2.331-.467l4.978-17.892c.067-.267-.066-.468-.332-.468h-5.575zM123.053 18.426c.066-.267-.066-.467-.332-.467H97.434c-.266 0-.531.2-.598.467l-1.46 5.14c-.066.268.066.468.332.468h25.288c.265 0 .53-.2.597-.467l1.46-5.14z"/><path fill="#FD0" d="M48.85 25.036c-.664 0-1.195-.268-1.593-.802-.399-.467-.465-1.135-.332-1.735l2.323-8.346c.265-1.001 1.26-1.735 2.323-1.735h8.164c.663 0 1.194.267 1.592.8.399.468.465 1.136.332 1.737L59.336 23.3c-.265 1.001-1.26 1.736-2.323 1.736H48.85z"/><path fill="#000" d="M59.8 13.82c.4 0 .665.333.532.734l-2.323 8.345c-.133.4-.531.735-.93.735h-8.163c-.398 0-.664-.334-.531-.735l2.323-8.345c.133-.4.53-.734.93-.734H59.8m0-2.871h-8.164c-1.66 0-3.252 1.202-3.65 2.804l-2.323 8.345a3.673 3.673 0 0 0 .53 3.004 3.387 3.387 0 0 0 2.722 1.335h8.164c1.659 0 3.252-1.201 3.65-2.803l2.323-8.346a3.673 3.673 0 0 0-.53-3.004A3.387 3.387 0 0 0 59.8 10.95"/><path fill="#FFF" d="M40.686 39.59c-.465 1.669-1.46 3.338-2.92 4.54-1.46 1.201-2.987 1.802-4.647 1.802H12.677l1.66-6.009H34.18c.399 0 .664-.2.73-.667l.996-3.806v-.334c-.066-.2-.199-.333-.398-.333H21.504c-1.592 0-2.854-.601-3.65-1.803-.796-1.202-.996-2.537-.531-4.206l1.261-4.606c.465-1.736 1.46-3.539 2.92-4.74 1.46-1.202 2.987-1.803 4.646-1.803h20.377l-1.66 6.009H25.022a.715.715 0 0 0-.464.2c-.133.133-.266.267-.266.4l-.996 3.94c-.066.2 0 .333.067.4.066.133.199.2.332.2h14.004c1.593 0 2.788.601 3.584 1.803.797 1.201.996 2.67.531 4.34l-1.128 4.672z"/><g fill="#231F20"><path d="M4.049 62.021h2.655v1.336H2.323V56.08h1.66v5.941zM9.956 58.082c.398 0 .73.067 1.062.2.332.134.597.268.796.535.2.2.398.534.531.868.133.333.2.667.2 1.135 0 .4-.067.8-.2 1.135-.133.333-.332.6-.53.867-.2.2-.532.401-.797.535-.332.133-.664.2-1.062.2s-.73-.067-1.062-.2c-.332-.134-.598-.334-.863-.535-.266-.2-.398-.534-.531-.867a3.135 3.135 0 0 1-.2-1.135c0-.401.067-.802.2-1.135.133-.334.332-.601.531-.868.2-.267.53-.4.863-.534.265-.134.664-.2 1.062-.2zm0 4.206a.944.944 0 0 0 .796-.4c.2-.267.266-.601.266-1.135s-.067-.868-.266-1.135-.398-.4-.796-.4a.944.944 0 0 0-.797.4c-.199.267-.265.6-.265 1.135 0 .534.066.868.265 1.135.133.267.399.4.797.4zM15.133 58.15v3.27c0 .268.066.468.199.601.133.134.265.2.53.2.2 0 .333-.066.465-.133.133-.067.266-.2.399-.267v-3.672h1.526v5.208h-.929c-.2 0-.332-.067-.398-.268l-.067-.267c-.066.067-.199.2-.331.267-.133.067-.2.134-.332.2-.133.068-.266.068-.399.134-.132 0-.265.067-.464.067-.266 0-.531-.067-.73-.133-.2-.067-.398-.268-.531-.401-.133-.2-.266-.4-.332-.6-.066-.268-.133-.535-.133-.802v-3.271h1.527v-.134zM21.969 58.082c.332 0 .664.067.93.134.265.133.53.267.73.467.198.2.331.468.464.735.133.267.199.6.199 1.001v.267c0 .067 0 .134-.066.2 0 .067-.067.067-.133.067H20.907c.066.4.2.735.398.935.2.2.465.267.797.267.199 0 .332 0 .464-.067.133-.067.266-.067.332-.133.133-.067.2-.134.266-.134.066-.067.199-.067.265-.067.133 0 .2.067.266.134l.464.534c-.132.2-.332.334-.53.467-.2.134-.399.2-.598.267-.2.067-.398.134-.597.134-.2 0-.399.067-.531.067-.332 0-.73-.067-.996-.2-.265-.134-.597-.268-.796-.535-.2-.267-.399-.534-.531-.868-.133-.334-.2-.734-.2-1.201 0-.334.067-.668.2-1.002.132-.334.265-.6.53-.801.2-.2.465-.4.797-.534s.664-.134 1.062-.134zm0 1.069c-.265 0-.53.066-.664.267-.132.2-.265.4-.332.734h1.925c0-.134 0-.267-.066-.334-.067-.067-.067-.2-.133-.334-.066-.066-.133-.133-.265-.2-.133-.067-.266-.133-.465-.133zM26.88 58.15v3.27c0 .268.067.468.2.601.132.134.265.2.53.2.2 0 .332-.066.465-.133s.266-.2.398-.267v-3.672H30v5.208h-.93c-.198 0-.331-.067-.397-.268l-.067-.267c-.066.067-.199.2-.332.267-.132.067-.199.134-.332.2-.132.068-.265.068-.398.134-.132 0-.265.067-.464.067-.266 0-.531-.067-.73-.133-.2-.067-.399-.268-.531-.401-.133-.2-.266-.4-.332-.6-.067-.268-.133-.535-.133-.802v-3.271h1.527v-.134zM31.46 63.357v-5.208H32.588c.067 0 .067.067.133.067.067 0 .067.067.067.133 0 .067.066.134.066.2l.066.468c.2-.267.399-.534.664-.668.266-.133.465-.267.797-.267.265 0 .398.067.597.2l-.2 1.136c0 .066-.066.133-.066.133-.066 0-.066.067-.132.067h-.465c-.398 0-.73.2-.93.668v3.204H31.46v-.133zM41.416 63.357c-.133 0-.266 0-.332-.067a.921.921 0 0 1-.199-.267l-.133-.267c-.133.133-.265.2-.398.267l-.398.2c-.133.067-.266.134-.398.134-.133 0-.332.066-.465.066-.266 0-.465 0-.664-.066-.199-.067-.332-.134-.464-.268-.133-.133-.266-.267-.332-.467-.067-.2-.133-.4-.133-.6 0-.201.066-.401.133-.535.066-.2.265-.4.464-.534.2-.133.531-.267.93-.4.398-.134.862-.134 1.46-.134v-.2c0-.334-.067-.534-.2-.668a.751.751 0 0 0-.53-.2c-.2 0-.332 0-.465.067-.133.066-.2.066-.332.133-.066.067-.199.067-.265.134-.067.066-.2.066-.332.066-.133 0-.2 0-.266-.066l-.199-.2-.265-.468a3.36 3.36 0 0 1 1.062-.6c.398-.134.796-.201 1.194-.201.332 0 .598.067.863.133.266.134.465.267.664.401s.332.4.398.668c.067.267.133.534.133.8v3.205h-.531v-.066zm-1.726-.935c.2 0 .398-.067.531-.134.133-.066.332-.2.465-.333v-.735c-.332 0-.531 0-.73.067-.2.067-.332.067-.465.133-.133.067-.199.134-.265.2-.067.068-.067.134-.067.268 0 .2.067.334.133.4.066.067.2.134.398.134zM44.934 58.15v3.27c0 .268.066.468.199.601.132.134.265.2.53.2.2 0 .333-.066.465-.133.133-.067.266-.2.399-.267v-3.672h1.526v5.208h-.93c-.198 0-.331-.067-.397-.268l-.067-.267c-.066.067-.199.2-.332.267-.132.067-.199.134-.331.2-.133.068-.266.068-.399.134-.132 0-.265.067-.464.067-.266 0-.531-.067-.73-.133-.2-.067-.399-.268-.531-.401-.133-.2-.266-.4-.332-.6-.067-.268-.133-.535-.133-.802v-3.271h1.527v-.134zM54.956 59.284c-.067.067-.067.134-.133.134s-.133.066-.2.066c-.065 0-.132 0-.198-.066-.067 0-.133-.067-.266-.134-.066-.067-.199-.067-.265-.133-.133 0-.2-.067-.332-.067-.2 0-.332.067-.465.133-.132.067-.132.2-.132.334 0 .067.066.2.132.267.067.067.133.134.266.2.133.067.265.067.398.134s.266.067.465.134c.132.066.265.133.464.2.133.067.266.133.398.267.133.133.2.2.266.4s.133.334.133.535c0 .267-.067.467-.133.734-.066.267-.2.4-.398.534-.2.133-.398.267-.664.334a3.896 3.896 0 0 1-.93.133c-.198 0-.331 0-.53-.066-.2-.067-.332-.067-.531-.134-.133-.067-.332-.134-.465-.2-.132-.067-.265-.134-.332-.267l.332-.601c.067-.067.067-.134.133-.134.066-.066.133-.066.266-.066.066 0 .199 0 .265.066.066.067.133.067.2.134.065.067.198.067.265.133.132.067.265.067.398.067s.199 0 .332-.067c.132-.066.132-.066.199-.133l.133-.134c0-.066.066-.133.066-.133 0-.134-.066-.2-.133-.267a.917.917 0 0 0-.265-.2c-.133-.067-.266-.067-.399-.134-.132-.067-.265-.067-.464-.134-.2-.066-.266-.133-.465-.2s-.265-.2-.398-.267-.2-.267-.265-.4a1.602 1.602 0 0 1-.133-.601c0-.2.066-.4.133-.601.066-.2.199-.4.398-.534s.398-.267.663-.334c.266-.067.531-.134.863-.134.2 0 .332 0 .531.067.2.067.332.067.465.134l.398.2c.133.067.266.2.332.267l-.398.534zM58.673 58.082c.331 0 .663.067.929.134.265.133.53.267.73.467.199.2.332.468.464.735.133.267.2.6.2 1.001v.267c0 .067 0 .134-.067.2 0 .067-.066.067-.133.067h-3.185c.066.4.199.735.398.935.199.2.464.267.796.267.2 0 .332 0 .465-.067s.265-.067.332-.133c.133-.067.199-.134.265-.134.067-.067.2-.067.266-.067.132 0 .199.067.265.134l.465.534c-.133.2-.332.334-.531.467-.2.134-.398.2-.597.267-.2.067-.399.134-.598.134-.199 0-.398.067-.53.067-.333 0-.73-.067-.996-.2-.266-.134-.598-.268-.797-.535-.199-.267-.398-.534-.53-.868-.134-.334-.2-.734-.2-1.201 0-.334.066-.668.2-1.002.132-.334.265-.6.53-.801.2-.2.465-.4.797-.534.331-.134.663-.134 1.062-.134zm0 1.069c-.266 0-.531.066-.664.267-.133.2-.266.4-.332.734h1.925c0-.134 0-.267-.067-.334-.066-.067-.066-.2-.132-.334-.067-.066-.133-.133-.266-.2s-.265-.133-.464-.133zM62.124 63.357v-5.208H63.252c.067 0 .067.067.133.067s.066.067.066.133c0 .067.067.134.067.2l.066.468c.2-.267.398-.534.664-.668.265-.133.464-.267.796-.267.266 0 .398.067.598.2l-.2 1.136c0 .066-.066.133-.066.133-.066 0-.066.067-.133.067h-.464c-.398 0-.73.2-.93.668v3.204h-1.725v-.133zM69.358 63.357h-1.393l-1.992-5.208h1.262c.132 0 .199 0 .265.067s.133.133.133.2l.73 2.337c.066.2.133.4.133.534 0 .133.066.334.132.534.067-.2.067-.334.133-.534s.133-.334.2-.534l.73-2.337c0-.067.066-.133.132-.2s.133-.067.265-.067h1.195l-1.925 5.208zM74.07 56.747c0 .134 0 .267-.066.334-.066.133-.132.2-.199.267-.066.067-.199.134-.332.2-.132.067-.265.067-.331.067-.133 0-.266 0-.332-.067-.067-.066-.2-.133-.266-.2s-.132-.2-.199-.267c-.066-.134-.066-.2-.066-.334 0-.133 0-.267.066-.334.067-.133.133-.2.2-.267.066-.066.198-.133.265-.2.132-.067.199-.067.332-.067.132 0 .265 0 .331.067.133.067.2.134.332.2.067.067.133.2.2.267.066.067.066.2.066.334zm-.132 1.402v5.208h-1.593v-5.208h1.593zM79.115 59.418c-.066.066-.066.133-.133.133-.066 0-.132.067-.199.067-.066 0-.133 0-.199-.067s-.133-.067-.199-.133c-.066-.067-.133-.067-.266-.134-.132-.067-.199-.067-.398-.067s-.332.067-.464.134c-.133.067-.266.2-.332.267a3.265 3.265 0 0 0-.2.467c-.066.2-.066.4-.066.668 0 .467.067.868.266 1.135s.464.4.796.4c.2 0 .332 0 .398-.066.133-.067.2-.067.266-.134s.133-.133.2-.133c.065-.067.132-.067.198-.067.133 0 .2.067.266.133l.464.534c-.132.2-.332.334-.53.468-.2.133-.333.2-.532.267s-.398.133-.53.133c-.133 0-.399.067-.532.067-.331 0-.597-.067-.929-.2-.265-.134-.53-.267-.73-.534-.199-.2-.398-.534-.53-.868a3.135 3.135 0 0 1-.2-1.135c0-.4.066-.735.2-1.068.132-.334.265-.601.464-.868s.464-.4.796-.534.664-.2 1.128-.2c.399 0 .73.066 1.062.2.332.133.598.333.797.6l-.332.535zM82.633 58.082c.332 0 .663.067.929.134.265.133.53.267.73.467.2.2.332.468.465.735.132.267.199.6.199 1.001v.267c0 .067 0 .134-.067.2 0 .067-.066.067-.132.067h-3.12c.067.4.2.735.398.935.2.2.465.267.797.267.199 0 .332 0 .464-.067.133-.067.266-.067.332-.133.133-.067.2-.134.266-.134.066-.067.199-.067.265-.067.133 0 .2.067.266.134l.464.534c-.132.2-.331.334-.53.467-.2.134-.399.2-.598.267-.2.067-.398.134-.597.134-.2 0-.399.067-.531.067-.332 0-.73-.067-.996-.2-.332-.134-.597-.268-.796-.535-.2-.267-.399-.534-.531-.868-.133-.334-.2-.734-.2-1.201 0-.334.067-.668.2-1.002.132-.334.265-.6.53-.801.2-.2.465-.4.797-.534.266-.067.598-.134.996-.134zm.066 1.069c-.265 0-.53.066-.664.267-.132.2-.265.4-.331.734h1.924c0-.134 0-.267-.066-.334 0-.133-.066-.2-.133-.334-.066-.066-.133-.133-.265-.2-.2-.067-.332-.133-.465-.133zM91.991 63.357c-.066 0-.199 0-.265-.067-.067-.067-.133-.134-.133-.2l-.133-.401c-.133.133-.199.2-.332.267-.132.067-.265.2-.332.2-.132.067-.265.134-.398.134-.133.067-.332.067-.464.067-.266 0-.531-.067-.73-.2-.2-.134-.399-.268-.598-.535-.199-.267-.265-.534-.398-.801s-.133-.734-.133-1.135c0-.4.067-.734.133-1.068.133-.334.265-.601.465-.868.199-.267.398-.4.663-.534.266-.134.598-.2.93-.2.265 0 .464.066.663.133.2.067.332.2.531.334v-2.604h1.527v7.478h-.996zm-1.593-1.135h.332c.066 0 .2-.067.266-.067.066-.067.132-.067.199-.134l.199-.2v-2.203c-.133-.134-.266-.2-.398-.267-.133-.067-.266-.067-.399-.067-.132 0-.265 0-.398.067s-.199.133-.332.267c-.066.133-.132.267-.199.467-.066.2-.066.468-.066.735 0 .267 0 .534.066.667.067.2.067.334.133.468a.52.52 0 0 0 .265.267h.332zM96.637 58.082c.332 0 .664.067.93.134.265.133.53.267.73.467.199.2.331.468.464.735.133.267.2.6.2 1.001v.267c0 .067 0 .134-.067.2 0 .067-.067.067-.133.067H95.575c.067.4.2.735.398.935.2.2.465.267.797.267.199 0 .332 0 .465-.067.132-.067.265-.067.331-.133.133-.067.2-.134.266-.134.066-.067.199-.067.265-.067.133 0 .2.067.266.134l.464.534c-.132.2-.331.334-.53.467-.2.134-.399.2-.598.267-.199.067-.398.134-.597.134-.2 0-.398.067-.531.067-.332 0-.73-.067-.996-.2-.332-.134-.597-.268-.796-.535-.2-.267-.398-.534-.531-.868-.133-.334-.2-.734-.2-1.201 0-.334.067-.668.2-1.002.133-.334.265-.6.53-.801.2-.2.465-.4.797-.534a4.593 4.593 0 0 1 1.062-.134zm0 1.069c-.265 0-.53.066-.664.267-.132.2-.265.4-.331.734h1.924c0-.134 0-.267-.066-.334 0-.133-.066-.2-.133-.334-.066-.066-.132-.133-.265-.2s-.266-.133-.465-.133zM103.274 59.284c-.066.067-.066.134-.132.134-.067 0-.133.066-.2.066-.066 0-.132 0-.199-.066-.066 0-.132-.067-.265-.134s-.2-.067-.266-.133c-.132 0-.199-.067-.331-.067-.2 0-.332.067-.465.133-.133.067-.133.2-.133.334 0 .067.067.2.133.267a.917.917 0 0 0 .265.2c.133.067.266.067.399.134.132.067.265.067.464.134.133.066.266.133.465.2.133.067.265.133.398.267.133.133.2.2.266.4.066.134.132.334.132.535 0 .267-.066.467-.132.734-.067.267-.2.4-.399.534-.199.133-.398.267-.663.334a3.896 3.896 0 0 1-.93.133c-.199 0-.331 0-.53-.066-.2 0-.332-.067-.532-.134-.132-.067-.331-.134-.464-.2-.133-.067-.266-.134-.332-.267l.332-.601c.066-.067.066-.134.133-.134.066-.066.132-.066.265-.066.066 0 .2 0 .266.066.066.067.132.067.199.134.066.067.199.067.265.133.133.067.266.067.398.067.133 0 .2 0 .332-.067.067 0 .133-.066.2-.133l.132-.134c0-.066.067-.133.067-.133 0-.134-.067-.2-.133-.267a.917.917 0 0 0-.266-.2c-.132-.067-.265-.067-.398-.134s-.265-.067-.465-.134a3.226 3.226 0 0 0-.464-.2c-.2-.067-.266-.2-.398-.267a1.397 1.397 0 0 1-.266-.4 1.602 1.602 0 0 1-.133-.601c0-.2.067-.4.133-.601.066-.2.2-.4.398-.534.2-.134.399-.267.664-.334.266-.067.531-.134.863-.134.199 0 .332 0 .53.067.2.067.333.067.465.134l.399.2c.132.067.265.2.332.267l-.399.534zM113.296 63.357h-1.659v-3.071h-2.92v3.07h-1.66V56.08h1.66v3.07h2.92v-3.07h1.66zM116.88 58.082c.399 0 .73.067 1.062.2.332.134.598.268.797.535.2.2.398.534.53.868.134.333.2.667.2 1.135 0 .4-.066.8-.2 1.135-.132.333-.33.6-.53.867-.2.2-.531.401-.797.535-.331.133-.663.2-1.061.2-.399 0-.73-.067-1.062-.2-.332-.134-.598-.334-.863-.535-.266-.2-.398-.534-.531-.867a3.135 3.135 0 0 1-.2-1.135c0-.401.067-.802.2-1.135.133-.334.332-.601.53-.868.2-.267.532-.4.864-.534.331-.134.663-.2 1.062-.2zm0 4.206a.944.944 0 0 0 .797-.4c.2-.267.265-.601.265-1.135s-.066-.868-.265-1.135c-.2-.267-.398-.4-.796-.4-.332 0-.664.133-.797.4-.199.267-.265.6-.265 1.135 0 .534.066.868.265 1.135.2.267.465.4.797.4zM120.664 63.357v-5.208h.929c.066 0 .199 0 .265.067.067.067.133.133.133.2l.067.267.265-.267c.066-.067.2-.133.332-.2.133-.067.199-.067.332-.134.132 0 .265-.066.398-.066.332 0 .597.066.796.267.2.133.332.4.465.667.066-.133.2-.267.332-.4.133-.134.265-.2.398-.267s.266-.134.465-.134c.132 0 .332-.067.464-.067.266 0 .531.067.797.134.265.067.398.2.597.4.133.2.266.401.332.601.066.267.133.534.133.801v3.272h-1.527v-3.205c0-.534-.199-.8-.664-.8-.199 0-.398.066-.53.2-.133.133-.2.333-.2.6v3.272h-1.526v-3.272c0-.267-.067-.534-.2-.6-.132-.134-.265-.2-.53-.2-.133 0-.266 0-.399.066-.132.067-.265.133-.331.267v3.739h-1.593zM129.491 63.357v-5.208h.93c.066 0 .198 0 .265.067.066.067.133.133.133.2l.066.267c.066-.067.2-.2.265-.267.067-.067.2-.133.332-.2.133-.067.2-.067.332-.134.133 0 .266-.066.398-.066.332 0 .598.066.797.267.199.133.332.4.464.667.067-.133.2-.267.332-.4.133-.134.266-.2.399-.267.132-.067.265-.134.464-.134.133 0 .332-.067.465-.067.265 0 .53.067.796.134s.398.2.598.4c.132.2.265.401.331.601.067.267.133.534.133.801v3.272h-1.593v-3.205c0-.534-.199-.8-.663-.8-.2 0-.399.066-.531.2-.133.133-.2.333-.2.6v3.272h-1.526v-3.272c0-.267-.066-.534-.2-.6-.132-.134-.265-.2-.53-.2-.133 0-.266 0-.398.066-.133.067-.266.133-.332.267v3.739h-1.527zM140.509 58.082c.332 0 .664.067.93.134.265.133.53.267.73.467.198.2.331.468.464.735.132.267.199.6.199 1.001v.267c0 .067 0 .134-.067.2 0 .067-.066.067-.132.067H139.447c.066.4.199.735.398.935.2.2.465.267.797.267.199 0 .331 0 .464-.067s.266-.067.332-.133c.133-.067.2-.134.266-.134.066-.067.199-.067.265-.067.133 0 .2.067.266.134l.464.534c-.133.2-.332.334-.53.467-.2.134-.4.2-.598.267-.2.067-.398.134-.598.134-.199 0-.398.067-.53.067-.332 0-.73-.067-.996-.2-.332-.134-.597-.268-.797-.535-.199-.267-.398-.534-.53-.868-.133-.334-.2-.734-.2-1.201 0-.334.067-.668.2-1.002.132-.334.265-.6.53-.801.2-.2.465-.4.797-.534.332-.067.664-.134 1.062-.134zm.066 1.069c-.265 0-.53.066-.663.267-.133.2-.266.4-.332.734h1.924c0-.134 0-.267-.066-.334 0-.133-.066-.2-.133-.334a.917.917 0 0 0-.265-.2c-.2-.067-.332-.133-.465-.133zM147.146 59.284c-.066.067-.066.134-.133.134-.066 0-.132.066-.199.066-.066 0-.133 0-.199-.066-.066 0-.133-.067-.265-.134-.133-.067-.2-.067-.266-.133-.133 0-.199-.067-.332-.067-.199 0-.332.067-.464.133-.133.067-.133.2-.133.334 0 .067.066.2.133.267.066.067.132.134.265.2.133.067.266.067.398.134.133.067.266.067.465.134.133.066.265.133.465.2.132.067.265.133.398.267.133.133.199.2.265.4.067.134.133.334.133.535 0 .267-.066.467-.133.734-.066.267-.199.4-.398.534-.2.133-.398.267-.664.334a3.896 3.896 0 0 1-.929.133c-.199 0-.332 0-.53-.066-.2 0-.333-.067-.532-.134-.133-.067-.332-.134-.464-.2-.133-.067-.266-.134-.332-.267l.332-.601c.066-.067.066-.134.132-.134.067-.066.133-.066.266-.066.066 0 .199 0 .265.066.067.067.133.067.2.134.066.067.198.067.265.133.133.067.265.067.398.067s.2 0 .332-.067c.066 0 .133-.066.2-.133l.132-.134c0-.066.066-.133.066-.133 0-.134-.066-.2-.133-.267-.066-.067-.132-.134-.265-.2-.133-.067-.266-.067-.398-.134-.133-.067-.266-.067-.465-.134a3.226 3.226 0 0 0-.464-.2c-.2-.067-.266-.2-.399-.267-.132-.133-.199-.267-.265-.4a1.602 1.602 0 0 1-.133-.601c0-.2.066-.4.133-.601.066-.2.199-.4.398-.534.2-.134.398-.267.664-.334.265-.067.53-.134.863-.134.199 0 .331 0 .53.067.2.067.332.067.465.134l.398.2c.133.067.266.2.332.267l-.398.534z"/></g></g></svg>
